<svg data-v-423bf9ae="" xmlns="http://www.w3.org/2000/svg" viewBox="0 0 196.14408039474844 163" class="iconAbove"><!----><!----><!----><g data-v-423bf9ae="" id="27d1e2fd-ed6a-4a57-bc2b-c065c5dcee3a" fill="url(#ec4eaf2f-39b6-42fd-9d57-d937c91299b2)" transform="matrix(6.355932485916886,0,0,6.355932485916886,-0.88983339507935,102.99999856948853)"><path d="M4.37 9.44L4.82 9.44L2.66 0L2.31 0L0.88 6.12L0.88 6.16L0.14 9.44L0.59 9.44L1.23 6.55L3.72 6.55ZM2.48 1.19L3.63 6.12L1.34 6.12ZM9.69 9.44L9.69 0L9.24 0L9.24 8.08L5.99 0L5.61 0L5.61 9.44L6.06 9.44L6.06 1.36L9.32 9.44ZM11.14 0L10.71 0L10.71 9.44L11.14 9.44ZM14.56 9.44L16.18 1.93L16.18 9.44L16.63 9.44L16.63 0L16.16 0L14.39 7.99L12.61 0L12.15 0L12.15 9.44L12.59 9.44L12.59 1.93L14.22 9.44ZM21.48 9.44L21.92 9.44L19.77 0L19.42 0L17.99 6.12L17.99 6.16L17.25 9.44L17.70 9.44L18.34 6.55L20.83 6.55ZM19.59 1.19L20.73 6.12L18.45 6.12ZM24.37 9.44C25.87 9.44 26.56 8.57 26.56 6.89L26.56 2.55C26.56 0.87 25.87 0 24.37 0L22.76 0L22.76 9.44ZM24.37 0.43C25.59 0.43 26.11 1.09 26.11 2.55L26.11 6.89C26.11 8.34 25.59 9.00 24.37 9.00L23.20 9.00L23.20 0.43ZM27.61 0L27.61 9.44L31.00 9.44L31.00 9.00L28.04 9.00L28.04 4.93L30.58 4.93L30.58 4.49L28.04 4.49L28.04 0.43L31.00 0.43L31.00 0Z"></path></g><defs data-v-423bf9ae=""><linearGradient data-v-423bf9ae="" gradientTransform="rotate(25)" id="ec4eaf2f-39b6-42fd-9d57-d937c91299b2" x1="0%" y1="0%" x2="100%" y2="0%"><stop data-v-423bf9ae="" offset="0%" style="stop-color: rgb(142, 66, 211); stop-opacity: 1;"></stop><stop data-v-423bf9ae="" offset="100%" style="stop-color: rgb(212, 105, 117); stop-opacity: 1;"></stop></linearGradient></defs><g data-v-423bf9ae="" id="b73aaf70-0cb7-4f47-ac9f-6c66de4ea9f7" transform="matrix(1.3235292632687217,0,0,1.3235292632687217,32.22353897952593,-21.17646821229954)" stroke="none" fill="url(#ec4eaf2f-39b6-42fd-9d57-d937c91299b2)"><path d="M76.7 52.7c.6 0 1.1 0 1.7.1-.9-9.3-6.2-17.4-13.9-21.9-2.1 6-7.8 10.3-14.5 10.3s-12.4-4.3-14.5-10.3c-7.7 4.5-13 12.6-13.9 21.9.5-.1 1.1-.1 1.7-.1 8.5 0 15.4 6.9 15.4 15.4 0 4.3-1.8 8.2-4.6 11 4.6 3.1 10.1 4.9 16 4.9s11.4-1.8 16-4.9c-2.9-2.8-4.6-6.7-4.6-11-.1-8.5 6.8-15.4 15.2-15.4z"></path><path d="M50 35.7c5.4 0 9.9-4.4 9.9-9.9S55.4 16 50 16s-9.9 4.4-9.9 9.9 4.5 9.8 9.9 9.8zM23.3 58.2c-5.4 0-9.9 4.4-9.9 9.9 0 5.4 4.4 9.9 9.9 9.9 5.4 0 9.9-4.4 9.9-9.9-.1-5.4-4.5-9.9-9.9-9.9zM76.7 58.2c-5.4 0-9.9 4.4-9.9 9.9 0 5.4 4.4 9.9 9.9 9.9 5.4 0 9.9-4.4 9.9-9.9 0-5.4-4.4-9.9-9.9-9.9z"></path></g><!----></svg>