<svg   data-v-fde0c5aa="" xmlns="http://www.w3.org/2000/svg" viewBox="0 0 300 300" className="iconAbove"><!----><defs data-v-fde0c5aa=""><!----></defs><rect data-v-fde0c5aa="" fill="#212121" x="0" y="0" width="300px" height="300px" class="logo-background-square"></rect><defs data-v-fde0c5aa=""><!----></defs><g data-v-fde0c5aa="" id="logoSvg"  fill="url(#8c119b2c-6973-4861-99a2-a47bc3a540ec)" transform="matrix (4.124365422335512,0,0,4.124365422335512,17.525380648266157,175.84803266174129)"><path d="M5.01 3.19L5.01 3.19L5.01 3.19Q4.41 3.19 4.12 3.54L4.12 3.54L4.12 3.54Q3.84 3.89 3.84 4.79L3.84 4.79L3.84 6.44L6.16 6.44L6.16 4.76L6.16 4.76Q6.16 4.17 6.02 3.81L6.02 3.81L6.02 3.81Q5.88 3.46 5.63 3.33L5.63 3.33L5.63 3.33Q5.39 3.19 5.01 3.19ZM6.16 9.11L6.16 8.37L3.84 8.37L3.84 9.11L3.84 9.11Q3.84 9.83 3.46 10.16L3.46 10.16L3.46 10.16Q3.08 10.50 2.16 10.50L2.16 10.50L2.16 10.50Q1.76 10.50 1.51 10.39L1.51 10.39L1.51 10.39Q1.26 10.28 1.07 10.01L1.07 10.01L1.07 10.01Q0.88 9.74 0.79 9.23L0.79 9.23L0.79 9.23Q0.70 8.72 0.65 8.00L0.65 8.00L0.65 8.00Q0.60 7.28 0.60 6.17L0.60 6.17L0.60 6.17Q0.60 5.21 0.81 4.40L0.81 4.40L0.81 4.40Q1.01 3.60 1.35 3.04L1.35 3.04L1.35 3.04Q1.69 2.48 2.13 2.05L2.13 2.05L2.13 2.05Q2.56 1.62 3.07 1.39L3.07 1.39L3.07 1.39Q3.58 1.15 4.07 1.03L4.07 1.03L4.07 1.03Q4.55 0.91 5.04 0.91L5.04 0.91L5.04 0.91Q5.63 0.91 6.20 1.07L6.20 1.07L6.20 1.07Q6.78 1.23 7.36 1.62L7.36 1.62L7.36 1.62Q7.95 2.02 8.39 2.60L8.39 2.60L8.39 2.60Q8.83 3.18 9.11 4.10L9.11 4.10L9.11 4.10Q9.39 5.03 9.39 6.17L9.39 6.17L9.39 6.17Q9.39 8.02 9.26 8.91L9.26 8.91L9.26 8.91Q9.13 9.80 8.81 10.15L8.81 10.15L8.81 10.15Q8.50 10.50 7.84 10.50L7.84 10.50L7.84 10.50Q6.92 10.50 6.54 10.16L6.54 10.16L6.54 10.16Q6.16 9.83 6.16 9.11L6.16 9.11ZM19.85 2.11L19.85 9.17L19.85 9.17Q19.85 9.79 19.49 10.14L19.49 10.14L19.49 10.14Q19.12 10.50 18.42 10.50L18.42 10.50L18.42 10.50Q18.24 10.50 18.06 10.46L18.06 10.46L18.06 10.46Q17.88 10.42 17.68 10.30L17.68 10.30L17.68 10.30Q17.47 10.19 17.32 10.09L17.32 10.09L17.32 10.09Q17.16 10.00 16.93 9.79L16.93 9.79L16.93 9.79Q16.70 9.59 16.57 9.47L16.57 9.47L16.57 9.47Q16.44 9.35 16.16 9.09L16.16 9.09L16.16 9.09Q15.88 8.82 15.75 8.69L15.75 8.69L13.19 6.27L13.19 9.31L13.19 9.31Q13.19 10.00 12.93 10.25L12.93 10.25L12.93 10.25Q12.67 10.50 12.11 10.50L12.11 10.50L12.11 10.50Q11.49 10.50 11.20 10.22L11.20 10.22L11.20 10.22Q10.91 9.94 10.91 9.28L10.91 9.28L10.91 2.52L10.91 2.52Q10.91 1.72 11.31 1.32L11.31 1.32L11.31 1.32Q11.72 0.91 12.47 0.91L12.47 0.91L12.47 0.91Q12.99 0.91 13.31 1.07L13.31 1.07L13.31 1.07Q13.62 1.23 14.06 1.65L14.06 1.65L17.60 5.18L17.60 2.13L17.60 2.13Q17.60 1.53 17.90 1.22L17.90 1.22L17.90 1.22Q18.20 0.92 18.72 0.92L18.72 0.92L18.72 0.92Q19.32 0.92 19.59 1.20L19.59 1.20L19.59 1.20Q19.85 1.48 19.85 2.11L19.85 2.11ZM21.39 1.88L21.39 1.88L21.39 1.88Q21.39 1.41 21.79 1.11L21.79 1.11L21.79 1.11Q22.19 0.81 22.92 0.81L22.92 0.81L22.92 0.81Q24.44 0.81 24.44 1.88L24.44 1.88L24.44 1.88Q24.44 2.46 24.06 2.70L24.06 2.70L24.06 2.70Q23.67 2.94 22.92 2.94L22.92 2.94L22.92 2.94Q22.26 2.94 21.83 2.69L21.83 2.69L21.83 2.69Q21.39 2.44 21.39 1.88ZM24.43 5.36L24.43 9.00L24.43 9.00Q24.43 9.84 24.08 10.17L24.08 10.17L24.08 10.17Q23.73 10.50 22.85 10.50L22.85 10.50L22.85 10.50Q22.02 10.50 21.72 10.12L21.72 10.12L21.72 10.12Q21.42 9.73 21.42 8.85L21.42 8.85L21.42 5.40L21.42 5.40Q21.42 4.69 21.80 4.26L21.80 4.26L21.80 4.26Q22.19 3.82 22.83 3.82L22.83 3.82L22.83 3.82Q23.59 3.82 24.01 4.15L24.01 4.15L24.01 4.15Q24.43 4.48 24.43 5.36L24.43 5.36ZM34.26 9.04L34.26 5.38L32.51 8.96L32.51 8.96Q32.28 9.41 32.03 9.60L32.03 9.60L32.03 9.60Q31.78 9.79 31.43 9.79L31.43 9.79L31.43 9.79Q30.98 9.79 30.67 9.47L30.67 9.47L30.67 9.47Q30.37 9.16 29.88 8.33L29.88 8.33L28.25 5.38L28.25 9.34L28.25 9.34Q28.25 9.94 27.98 10.22L27.98 10.22L27.98 10.22Q27.71 10.50 27.16 10.50L27.16 10.50L27.16 10.50Q26.54 10.50 26.26 10.23L26.26 10.23L26.26 10.23Q25.98 9.95 25.98 9.16L25.98 9.16L25.98 3.05L25.98 3.05Q25.98 1.97 26.47 1.43L26.47 1.43L26.47 1.43Q26.96 0.88 28.13 0.88L28.13 0.88L28.13 0.88Q28.56 0.88 28.88 1.03L28.88 1.03L28.88 1.03Q29.20 1.18 29.36 1.37L29.36 1.37L29.36 1.37Q29.53 1.55 29.68 1.83L29.68 1.83L31.56 5.94L33.54 1.90L33.54 1.90Q34.06 0.90 35.41 0.90L35.41 0.90L35.41 0.90Q36.04 0.90 36.48 1.11L36.48 1.11L36.48 1.11Q36.93 1.33 37.19 1.81L37.19 1.81L37.19 1.81Q37.45 2.30 37.45 3.02L37.45 3.02L37.45 9.11L37.45 9.11Q37.44 10.50 35.70 10.50L35.70 10.50L35.70 10.50Q35.07 10.50 34.67 10.16L34.67 10.16L34.67 10.16Q34.27 9.81 34.26 9.04L34.26 9.04ZM41.50 10.58L41.50 10.58L41.50 10.58Q40.39 10.58 39.66 9.68L39.66 9.68L39.66 9.68Q38.93 8.78 38.93 7.21L38.93 7.21L38.93 7.21Q38.93 5.61 39.65 4.67L39.65 4.67L39.65 4.67Q40.38 3.72 41.50 3.72L41.50 3.72L41.50 3.72Q42.63 3.72 43.60 4.52L43.60 4.52L43.60 4.52Q43.97 3.82 44.81 3.82L44.81 3.82L44.81 3.82Q45.57 3.82 45.99 4.15L45.99 4.15L45.99 4.15Q46.41 4.48 46.41 5.36L46.41 5.36L46.41 9.00L46.41 9.00Q46.41 9.84 46.06 10.17L46.06 10.17L46.06 10.17Q45.71 10.50 44.83 10.50L44.83 10.50L44.83 10.50Q43.90 10.50 43.61 9.98L43.61 9.98L43.61 9.98Q42.71 10.58 41.50 10.58ZM43.40 8.48L43.40 5.87L43.40 5.87Q43.16 5.46 42.78 5.46L42.78 5.46L42.78 5.46Q42.42 5.46 42.20 5.99L42.20 5.99L42.20 5.99Q41.97 6.52 41.97 7.21L41.97 7.21L41.97 7.21Q41.97 7.85 42.18 8.36L42.18 8.36L42.18 8.36Q42.39 8.86 42.77 8.86L42.77 8.86L42.77 8.86Q43.16 8.86 43.40 8.48L43.40 8.48ZM55.19 2.46L55.19 8.40L55.19 8.40Q55.19 9.53 54.81 10.02L54.81 10.02L54.81 10.02Q54.43 10.50 53.65 10.50L53.65 10.50L53.65 10.50Q52.75 10.50 52.42 9.94L52.42 9.94L52.42 9.94Q51.51 10.60 50.22 10.60L50.22 10.60L50.22 10.60Q49.13 10.60 48.40 9.70L48.40 9.70L48.40 9.70Q47.67 8.79 47.67 7.22L47.67 7.22L47.67 7.22Q47.67 5.63 48.38 4.68L48.38 4.68L48.38 4.68Q49.10 3.74 50.22 3.74L50.22 3.74L50.22 3.74Q51.23 3.74 52.11 4.38L52.11 4.38L52.11 2.59L52.11 2.59Q52.11 1.74 52.53 1.32L52.53 1.32L52.53 1.32Q52.95 0.91 53.65 0.91L53.65 0.91L53.65 0.91Q54.42 0.91 54.80 1.22L54.80 1.22L54.80 1.22Q55.19 1.53 55.19 2.46L55.19 2.46ZM52.14 8.48L52.14 8.48L52.12 5.87L52.12 5.87Q51.88 5.47 51.51 5.47L51.51 5.47L51.51 5.47Q51.27 5.47 51.08 5.74L51.08 5.74L51.08 5.74Q50.89 6.01 50.79 6.40L50.79 6.40L50.79 6.40Q50.69 6.79 50.69 7.22L50.69 7.22L50.69 7.22Q50.69 7.87 50.90 8.37L50.90 8.37L50.90 8.37Q51.11 8.88 51.49 8.88L51.49 8.88L51.49 8.88Q51.56 8.88 51.63 8.86L51.63 8.86L51.63 8.86Q51.70 8.85 51.76 8.83L51.76 8.83L51.76 8.83Q51.81 8.81 51.87 8.77L51.87 8.77L51.87 8.77Q51.93 8.74 51.97 8.69L51.97 8.69L51.97 8.69Q52.01 8.65 52.05 8.60L52.05 8.60L52.05 8.60Q52.09 8.54 52.14 8.48ZM60.33 10.58L60.33 10.58L60.33 10.58Q58.62 10.58 57.50 9.70L57.50 9.70L57.50 9.70Q56.39 8.82 56.39 7.29L56.39 7.29L56.39 7.29Q56.39 5.64 57.49 4.68L57.49 4.68L57.49 4.68Q58.59 3.72 60.33 3.72L60.33 3.72L60.33 3.72Q61.96 3.72 62.73 4.30L62.73 4.30L62.73 4.30Q63.49 4.89 63.49 5.89L63.49 5.89L63.49 5.89Q63.49 6.09 63.44 6.27L63.44 6.27L63.44 6.27Q63.39 6.45 63.29 6.63L63.29 6.63L63.29 6.63Q63.18 6.80 63.01 6.95L63.01 6.95L63.01 6.95Q62.83 7.10 62.61 7.22L62.61 7.22L62.61 7.22Q62.38 7.34 62.08 7.40L62.08 7.40L62.08 7.40Q61.77 7.46 61.42 7.46L61.42 7.46L59.44 7.48L59.44 7.48Q59.58 7.92 59.95 8.18L59.95 8.18L59.95 8.18Q60.31 8.44 60.87 8.44L60.87 8.44L60.87 8.44Q61.47 8.44 62.10 8.29L62.10 8.29L62.10 8.29Q62.37 8.22 62.68 8.06L62.68 8.06L62.68 8.06Q63.00 7.91 63.14 7.91L63.14 7.91L63.14 7.91Q63.38 7.91 63.51 8.05L63.51 8.05L63.51 8.05Q63.64 8.19 63.64 8.40L63.64 8.40L63.64 8.40Q63.64 8.65 63.42 9.01L63.42 9.01L63.42 9.01Q63.20 9.37 62.80 9.72L62.80 9.72L62.80 9.72Q62.40 10.08 61.74 10.33L61.74 10.33L61.74 10.33Q61.08 10.58 60.33 10.58ZM59.37 6.58L59.37 6.58L59.37 6.58Q60.34 6.57 60.42 6.57L60.42 6.57L60.42 6.57Q60.63 6.57 60.73 6.31L60.73 6.31L60.73 6.31Q60.80 6.13 60.80 5.81L60.80 5.81L60.80 5.81Q60.80 4.93 60.27 4.93L60.27 4.93L60.27 4.93Q60.07 4.93 59.88 5.14L59.88 5.14L59.88 5.14Q59.70 5.35 59.56 5.73L59.56 5.73L59.56 5.73Q59.42 6.12 59.37 6.58Z"></path></g><defs data-v-fde0c5aa=""><linearGradient data-v-fde0c5aa="" gradientTransform="rotate(25)" id="8c119b2c-6973-4861-99a2-a47bc3a540ec" x1="0%" y1="0%" x2="100%" y2="0%"><stop data-v-fde0c5aa="" offset="0%" stop-color="#8E42D3" stop-opacity="1"></stop><stop data-v-fde0c5aa="" offset="100%" stop-color="#D46975" stop-opacity="1"></stop></linearGradient></defs><g data-v-fde0c5aa="" id="93da8430-8a1e-4105-89e3-bcf42f4ad6b6"  fill="url(#8c119b2c-6973-4861-99a2-a47bc3a540ec)" transform="matrix(6.729589554555435,0,0,6.729589554555435,96.16328356355652,66.97451489989021)"><path d="M7.969 2L6 13.844 5.969 14h2.063l1.969-11.844.031-.156H7.969zM5 3.813l-.531.344-4 2.5L0 6.938v2.126l.469.281 4 2.5.531.344V9.814L2.094 8.001 5 6.188V3.813zm6 0v2.375l2.906 1.813L11 9.814v2.375l.531-.344 4-2.5.469-.281V6.938l-.469-.281-4-2.5L11 3.813z" ></path></g><!----></svg>